<svg id="_x31__x2C_5" enable-background="new 0 0 24 24" height="512" viewBox="0 0 24 24" width="512" xmlns="http://www.w3.org/2000/svg"><path d="m18.5 7.25h-15c-1.519 0-2.75-1.231-2.75-2.75 0-1.519 1.231-2.75 2.75-2.75h15c1.519 0 2.75 1.231 2.75 2.75 0 1.519-1.231 2.75-2.75 2.75z" fill="#cfd8dc"/><path d="m18.5 12.75h-15c-1.519 0-2.75-1.231-2.75-2.75 0-1.519 1.231-2.75 2.75-2.75h15c1.519 0 2.75 1.231 2.75 2.75 0 1.519-1.231 2.75-2.75 2.75z" fill="#90a4ae"/><path d="m18.5 18.25h-15c-1.519 0-2.75-1.231-2.75-2.75 0-1.519 1.231-2.75 2.75-2.75h15c1.519 0 2.75 1.231 2.75 2.75 0 1.519-1.231 2.75-2.75 2.75z" fill="#cfd8dc"/><circle cx="17.5" cy="17.5" fill="#4caf50" r="5.75"/><path d="m17.5 24c-3.584 0-6.5-2.916-6.5-6.5s2.916-6.5 6.5-6.5 6.5 2.916 6.5 6.5-2.916 6.5-6.5 6.5zm0-11.5c-2.757 0-5 2.243-5 5s2.243 5 5 5 5-2.243 5-5-2.243-5-5-5z"/><path d="m17.5 21c-.414 0-.75-.336-.75-.75v-5.5c0-.414.336-.75.75-.75s.75.336.75.75v5.5c0 .414-.336.75-.75.75z"/><path d="m20.25 18.25h-5.5c-.414 0-.75-.336-.75-.75s.336-.75.75-.75h5.5c.414 0 .75.336.75.75s-.336.75-.75.75z"/><path d="m18.5 8h-15c-1.93 0-3.5-1.57-3.5-3.5s1.57-3.5 3.5-3.5h15c1.93 0 3.5 1.57 3.5 3.5s-1.57 3.5-3.5 3.5zm-15-5.5c-1.103 0-2 .897-2 2s.897 2 2 2h15c1.103 0 2-.897 2-2s-.897-2-2-2z"/><circle cx="5" cy="4.5" r="1"/><circle cx="9" cy="4.5" r="1"/><path d="m9.87 13.5h-6.37c-1.93 0-3.5-1.57-3.5-3.5 0-.929.377-1.831 1.035-2.476.633-.647 1.536-1.024 2.465-1.024h15c1.583 0 2.971 1.064 3.375 2.588.106.4-.133.812-.533.917-.397.111-.81-.132-.917-.532-.23-.868-1.021-1.473-1.925-1.473h-15c-.536 0-1.035.208-1.404.584-.388.381-.596.88-.596 1.416 0 1.103.897 2 2 2h6.37c.414 0 .75.336.75.75s-.336.75-.75.75z"/><circle cx="5" cy="10" r="1"/><circle cx="9" cy="10" r="1"/><path d="m8.25 19h-4.75c-1.93 0-3.5-1.57-3.5-3.5 0-.929.377-1.831 1.035-2.476.633-.647 1.536-1.024 2.465-1.024h6.37c.414 0 .75.336.75.75s-.336.75-.75.75h-6.37c-.536 0-1.035.208-1.404.584-.388.381-.596.88-.596 1.416 0 1.103.897 2 2 2h4.75c.414 0 .75.336.75.75s-.336.75-.75.75z"/><circle cx="5" cy="15.5" r="1"/></svg>