<?xml version="1.0"?>
<svg xmlns="http://www.w3.org/2000/svg" viewBox="0 0 64 64" width="512" height="512"><g id="quarantine-home-covid19-coronavirus-protect"><path d="M32.694,2.281a1,1,0,0,0-1.388,0l-29,28A1,1,0,0,0,3,32H8V61a1,1,0,0,0,1,1H54a1,1,0,0,0,1-1V32h6a1,1,0,0,0,.694-1.719ZM54,30a1,1,0,0,0-1,1V60H10V31a1,1,0,0,0-1-1H5.476L32,4.39,58.524,30Z"/><path d="M30.791,12.146a4.929,4.929,0,0,0-3.643,3.608A5,5,0,0,0,29,21v1H27a5.006,5.006,0,0,0-5,5V37a3,3,0,0,0,3,3,2.966,2.966,0,0,0,1-.184V57a1,1,0,0,0,1,1H37a1,1,0,0,0,1-1V39.816A2.966,2.966,0,0,0,39,40a3,3,0,0,0,3-3V27a5.006,5.006,0,0,0-5-5H35V21a5,5,0,0,0-4.209-8.851Zm3.065,2.5a3,3,0,0,1-.354,4.949,1,1,0,0,0-.5.867V22a2,2,0,0,0,2,2h2a3,3,0,0,1,3,3V37a1,1,0,0,1-2,0V28a1,1,0,0,0-2,0V56H33V40a1,1,0,0,0-2,0V56H28V28a1,1,0,0,0-2,0v9a1,1,0,0,1-2,0V27a3,3,0,0,1,3-3h2a2,2,0,0,0,2-2V20.46a1,1,0,0,0-.5-.868,3.01,3.01,0,0,1-1.4-3.367,2.953,2.953,0,0,1,2.16-2.132A2.989,2.989,0,0,1,33.856,14.644Z"/><path d="M45,8h1.184a2.746,2.746,0,0,0,.117.285l-.836.837a1,1,0,1,0,1.414,1.414l.836-.837A2.746,2.746,0,0,0,48,9.816V11a1,1,0,0,0,2,0V9.816a2.746,2.746,0,0,0,.285-.117l.836.837a1,1,0,1,0,1.414-1.414L51.7,8.285A2.746,2.746,0,0,0,51.816,8H53a1,1,0,0,0,0-2H51.816a2.746,2.746,0,0,0-.117-.285l.836-.837a1,1,0,1,0-1.414-1.414l-.836.837A2.746,2.746,0,0,0,50,4.184V3a1,1,0,0,0-2,0V4.184a2.746,2.746,0,0,0-.285.117l-.836-.837a1,1,0,1,0-1.414,1.414l.836.837A2.746,2.746,0,0,0,46.184,6H45a1,1,0,0,0,0,2Zm5-1a1,1,0,1,1-1-1A1,1,0,0,1,50,7Z"/><path d="M53.465,12.878l.836.837a2.746,2.746,0,0,0-.117.285H53a1,1,0,0,0,0,2h1.184a2.746,2.746,0,0,0,.117.285l-.836.837a1,1,0,1,0,1.414,1.414l.836-.837a2.746,2.746,0,0,0,.285.117V19a1,1,0,0,0,2,0V17.816a2.746,2.746,0,0,0,.285-.117l.836.837a1,1,0,1,0,1.414-1.414l-.836-.837A2.746,2.746,0,0,0,59.816,16H61a1,1,0,0,0,0-2H59.816a2.746,2.746,0,0,0-.117-.285l.836-.837a1,1,0,1,0-1.414-1.414l-.836.837A2.746,2.746,0,0,0,58,12.184V11a1,1,0,0,0-2,0v1.184a2.746,2.746,0,0,0-.285.117l-.836-.837a1,1,0,1,0-1.414,1.414ZM58,15a1,1,0,1,1-1-1A1,1,0,0,1,58,15Z"/><path d="M11,8h1.184a2.746,2.746,0,0,0,.117.285l-.836.837a1,1,0,1,0,1.414,1.414l.836-.837A2.746,2.746,0,0,0,14,9.816V11a1,1,0,0,0,2,0V9.816a2.746,2.746,0,0,0,.285-.117l.836.837a1,1,0,1,0,1.414-1.414L17.7,8.285A2.746,2.746,0,0,0,17.816,8H19a1,1,0,0,0,0-2H17.816a2.746,2.746,0,0,0-.117-.285l.836-.837a1,1,0,0,0-1.414-1.414l-.836.837A2.746,2.746,0,0,0,16,4.184V3a1,1,0,0,0-2,0V4.184a2.746,2.746,0,0,0-.285.117l-.836-.837a1,1,0,0,0-1.414,1.414l.836.837A2.746,2.746,0,0,0,12.184,6H11a1,1,0,0,0,0,2Zm5-1a1,1,0,1,1-1-1A1,1,0,0,1,16,7Z"/><path d="M3,16H4.184a2.746,2.746,0,0,0,.117.285l-.836.837a1,1,0,1,0,1.414,1.414l.836-.837A2.746,2.746,0,0,0,6,17.816V19a1,1,0,0,0,2,0V17.816a2.746,2.746,0,0,0,.285-.117l.836.837a1,1,0,0,0,1.414-1.414L9.7,16.285A2.746,2.746,0,0,0,9.816,16H11a1,1,0,0,0,0-2H9.816a2.746,2.746,0,0,0-.117-.285l.836-.837a1,1,0,0,0-1.414-1.414l-.836.837A2.746,2.746,0,0,0,8,12.184V11a1,1,0,0,0-2,0v1.184a2.746,2.746,0,0,0-.285.117l-.836-.837a1,1,0,1,0-1.414,1.414l.836.837A2.746,2.746,0,0,0,4.184,14H3a1,1,0,0,0,0,2Zm5-1a1,1,0,1,1-1-1A1,1,0,0,1,8,15Z"/></g></svg>
