<?xml version="1.0" encoding="iso-8859-1"?>
<!-- Generator: Adobe Illustrator 19.0.0, SVG Export Plug-In . SVG Version: 6.00 Build 0)  -->
<svg version="1.1" id="Capa_1" xmlns="http://www.w3.org/2000/svg" xmlns:xlink="http://www.w3.org/1999/xlink" x="0px" y="0px"
	 viewBox="0 0 512 512" style="enable-background:new 0 0 512 512;" xml:space="preserve">
<g>
	<g>
		<path d="M172.106,323.616H67.894L3.5,388.009v120.606h233V388.009L172.106,323.616z M101.5,493.616h-83v-95h83V493.616z
			 M29.106,383.616l45-45h76.787l-45,45H29.106z M181.5,493.616h-25v-52.5c0-6.893,5.607-12.5,12.5-12.5s12.5,5.607,12.5,12.5
			V493.616z M221.5,493.616h-25v-52.5c0-15.164-12.336-27.5-27.5-27.5s-27.5,12.336-27.5,27.5v52.5h-25v-99.394l52.5-52.5l52.5,52.5
			V493.616z"/>
	</g>
</g>
<g>
	<g>
		<path d="M33.5,413.616v55h53v-55H33.5z M71.5,453.616h-23v-25h23V453.616z"/>
	</g>
</g>
<g>
	<g>
		<path d="M403.5,353.616v55h75v-55H403.5z M463.5,393.616h-45v-25h45V393.616z"/>
	</g>
</g>
<g>
	<g>
		<path d="M478.5,251.616v-22.606l-64.394-64.394H408.5v-29h-45v29h-36.848L408.396,30.85l89.12,128.539l12.327-8.547L407.604,3.381
			l-65.445,107.094L285.47,46.173l-105.932,144.15L75.546,87.097l-72.71,85.147l11.407,9.741l62.21-72.853l94.103,93.409
			l-36.062,49.073H0v15h223.5v93h30v99h255V328.009l-30-30v-31.394H512v-15H478.5z M378.5,150.616h15v25h-15V150.616z
			 M363.5,179.616v11h45v-10.394l44.394,44.394h-98.787l-45-45H363.5z M463.5,239.616v43.394l-19.394-19.394H358.5v-24H463.5z
			 M223.5,251.616h-70.391L286.531,70.059l47.441,53.813l-24.898,40.744h-21.18L223.5,229.009V251.616z M263.501,318.011l-10,10
			v16.606H238.5v-0.001V235.223l52.5-52.5l52.5,52.5v28.394h-25.606l-8.26,8.26c-4.98-4.602-11.562-7.26-18.633-7.26
			c-15.164,0-27.5,12.336-27.5,27.5V318.011z M299.006,282.504L278.5,303.009v-10.894c0-6.893,5.607-12.5,12.5-12.5
			C293.998,279.616,296.804,280.664,299.006,282.504z M333.5,443.616h-25v-52.5c0-6.893,5.607-12.5,12.5-12.5s12.5,5.607,12.5,12.5
			V443.616z M373.5,443.616h-25v-52.5c0-15.164-12.336-27.5-27.5-27.5s-27.5,12.336-27.5,27.5v52.5h-25V334.223l52.5-52.5l52.5,52.5
			V443.616z M493.5,443.616h-105v-105h105V443.616z M482.893,323.616h-98.787l-45-45h98.787L482.893,323.616z"/>
	</g>
</g>
<g>
	<g>
		<path d="M175,3.616c-20.678,0-37.5,16.822-37.5,37.5s16.822,37.5,37.5,37.5s37.5-16.822,37.5-37.5
			C212.5,20.437,195.678,3.616,175,3.616z M175,63.616c-12.407,0-22.5-10.093-22.5-22.5s10.093-22.5,22.5-22.5
			s22.5,10.093,22.5,22.5S187.407,63.616,175,63.616z"/>
	</g>
</g>
<g>
	<g>
		<g>
			
				<rect x="186.197" y="390.739" transform="matrix(0.7071 -0.7071 0.7071 0.7071 -224.8655 253.6068)" width="14.999" height="15.001"/>
			
				<rect x="163.558" y="368.936" transform="matrix(-0.7071 -0.7071 0.7071 -0.7071 27.2594 764.1631)" width="16.669" height="14.999"/>
		</g>
	</g>
</g>
<g>
	<g>
		<g>
			<rect x="384" y="293.616" width="15" height="15"/>
			<rect x="414" y="293.616" width="25" height="15"/>
		</g>
	</g>
</g>
<g>
	<g>
		<g>
			
				<rect x="312.522" y="309.436" transform="matrix(-0.7071 -0.7071 0.7071 -0.7071 329.6651 770.4238)" width="23.74" height="14.999"/>
			
				<rect x="341.196" y="333.739" transform="matrix(0.7071 -0.7071 0.7071 0.7071 -139.1613 346.5132)" width="14.999" height="14.999"/>
		</g>
	</g>
</g>
<g>
	<g>
		<g>
			
				<rect x="258.803" y="231.74" transform="matrix(-0.7071 -0.7071 0.7071 -0.7071 285.4398 596.712)" width="14.999" height="14.999"/>
			
				<rect x="279.566" y="209.436" transform="matrix(0.7071 -0.7071 0.7071 0.7071 -68.8656 267.6163)" width="18.084" height="14.999"/>
		</g>
	</g>
</g>
<g>
	<g>
		<g>
			<rect x="436.947" y="91.647" transform="matrix(0.8218 -0.5698 0.5698 0.8218 9.4995 275.0438)" width="15" height="61.377"/>
			<rect x="467.253" y="158.545" transform="matrix(0.8218 -0.5698 0.5698 0.8218 -10.005 300.1023)" width="15" height="15"/>
		</g>
	</g>
</g>
<g>
	<g>
		<g>
			<rect x="233.456" y="162.572" transform="matrix(-0.8058 -0.5922 0.5922 -0.8058 334.4146 449.803)" width="15" height="15"/>
			<rect x="242.626" y="121.415" transform="matrix(0.5922 -0.8058 0.8058 0.5922 6.7224 271.1135)" width="57.151" height="15"/>
		</g>
	</g>
</g>
<g>
	<g>
		<g>
			<rect x="28.724" y="183.393" transform="matrix(-0.7605 -0.6494 0.6494 -0.7605 -60.194 359.5828)" width="15" height="15"/>
			<rect x="43.552" y="150.486" transform="matrix(0.6494 -0.7605 0.7605 0.6494 -97.5887 104.3096)" width="41.547" height="15"/>
		</g>
	</g>
</g>
<g>
	<g>
		<g>
			
				<rect x="106.767" y="171.063" transform="matrix(-0.7097 -0.7045 0.7045 -0.7097 69.9032 385.9274)" width="15.385" height="15"/>
			<rect x="128.388" y="192.332" transform="matrix(0.7045 -0.7097 0.7097 0.7045 -101.6687 155.5006)" width="15" height="15"/>
		</g>
	</g>
</g>
<g>
	<g>
		<rect x="16" y="279.618" width="40" height="15"/>
	</g>
</g>
<g>
	<g>
		<rect x="88" y="296.618" width="19" height="15"/>
	</g>
</g>
<g>
	<g>
		<rect x="135" y="277.618" width="45" height="15"/>
	</g>
</g>
<g>
	<g>
		<rect x="272" y="471.618" width="48" height="15"/>
	</g>
</g>
<g>
	<g>
		<rect x="349" y="492.618" width="15" height="15"/>
	</g>
</g>
<g>
	<g>
		<rect x="389" y="477.618" width="40" height="15"/>
	</g>
</g>
<g>
	<g>
		<rect x="456" y="493.618" width="39" height="15"/>
	</g>
</g>
<g>
</g>
<g>
</g>
<g>
</g>
<g>
</g>
<g>
</g>
<g>
</g>
<g>
</g>
<g>
</g>
<g>
</g>
<g>
</g>
<g>
</g>
<g>
</g>
<g>
</g>
<g>
</g>
<g>
</g>
</svg>
