<svg height="60" viewBox="0 0 60 60" width="60" xmlns="http://www.w3.org/2000/svg"><g id="Page-1" fill="none" fill-rule="evenodd"><g id="011---Dropping-Man" fill="rgb(0,0,0)" fill-rule="nonzero"><path id="Shape" d="m59.46 57.32c-2.9-8.15-4.91-13.74-9.28-26-.2863004-.7918949-1.0379398-1.3196417-1.88-1.32h-9.68c-1.0496304-.8386041-2.401636-1.2010721-3.73-1 2.3198632-2.2663329 2.7792128-5.829396 1.11-8.61.1510004-1.6862474-.1967313-3.3797011-1-4.87l12.29 5.82c1.5881063.6357186 3.399005-.0433925 4.1774812-1.566611s.2680493-3.388697-1.1774812-4.303389l-1.29-.71c.75-2 .09-4.22-2.77-5.65s-11.23-2.91-16.09-3.63c-7.05-3.02-14.29-5.48-19.14-5.48-.82 0-1.55 0-2.21.07-1.5704817.11020344-2.78861402 1.41565707-2.79 2.99v8.48c-.00224922.8352758.34383848 1.6336719.95497818 2.2030568.6111397.5693848 1.43199217.8582 2.26502182.7969432 1.1721121-.1046851 2.3412573.2303748 3.28.94 2.4 1.85 2.52 3.37 7.08 9.88.8518279 1.279328 2.4871599 1.7812202 3.91 1.2.3677816.920255.926775 1.7519282 1.64 2.44-1.43 0-2.48-.11-3.75 1h-9.67c-.8483087-.0023587-1.6058188.5307039-1.89 1.33-8.56 24-7.87 22-9.28 26-.21745411.6116045-.12456536 1.2907028.24914201 1.8214468.37370738.530744.98174759.847114 1.63085799.8485532h55.16c.6516197-.0002772 1.2622506-.3179822 1.6364641-.8514356.3742136-.5334534.4650867-1.2157646.2435359-1.8285644zm-19.54.68-11.74-5.07c.6851009-.1237472 1.3183139-.4473121 1.82-.93 1.0753197 1.1127555 2.7612848 1.3705609 4.12.63l12.56 5.37zm-33.92-9.92 2.28 1-3.14 1.33zm-1.8 4.92 7-3c.3687533-.1570883.6080816-.5191812.6080816-.92s-.2393283-.7629117-.6080816-.92l-4.53-2 .91-2.53 8.74 3.78c.2562187.1055675.5437813.1055675.8 0l6.91-3v5c-.001294.6588431.186091 1.3042804.54 1.86l-4.48-1.94c-.2550505-.1113131-.5449495-.1113131-.8 0l-16.29 7.13zm6.51-18.18 9.29 4v1.18c-.0239288 1.4670112 1.0167224 2.736098 2.46 3l-5.77 2.48-8.47-3.71zm9 16.62 15.17 6.56h-30.42zm20.15-19.44h8l-7.86 3.36c0-2.53.05-2.64-.14-3.36zm.14 5.54 8.91-3.84.9 2.53-4 1.71c-.3687533.1570883-.6080816.5191812-.6080816.92s.2393283.7629117.6080816.92l6.19 2.67 1.24 3.45-12.49-5.4c-.2550505-.1113131-.5449495-.1113131-.8 0 .1027087-.9833355.1194388-1.9737566.05-2.96zm11.11 2.33-2.35-1 1.72-.74zm-5.75-29c1.26.63 2.22 1.54 1.88 2.9-2.63-1.41-6.12-3.23-10-5.07 2.7776943.43517358 5.5001865 1.16944179 8.12 2.19zm-24.14 13.33c-4.54-6.51-4.78-8.22-7.5-10.32-1.3322416-1.0129392-2.9920524-1.4973475-4.66-1.36-.27545038.0165573-.54549954-.0814438-.74622205-.2708046-.20072251-.1893609-.31427513-.4532483-.31377795-.7291954v-8.46c-.00167446-.52249371.39917807-.95820297.92-1 .63-.06 1.31-.06 2.08-.06 10.44 0 33.76 12.67 38.34 15.22.4120648.2256061.6659306.6602551.66 1.13-.0033723.4477658-.2335134.8632907-.6112869 1.103692s-.8516617.2728951-1.2587131.086308l-15.7-7.44c-.4409804-.202212-.9634899-.0587413-1.2393759.340308-.2758859.3990494-.2255581.9385558.1193759 1.279692 1.2005038 1.2457816 2.0702446 2.7721252 2.53 4.44-.859894-.5562849-1.827754-.9243444-2.84-1.08-.676424-1.0245442-1.6205935-1.8442078-2.73-2.37-2.44-1.18-5.36-1.53-6.19 1-1.05 3.13 1 6.4 1.37 7.51.2249655.6056872-.0613064 1.2817374-.6528238 1.5416867-.5915173.2599493-1.2831302.0136422-1.5771762-.5616867zm3-4.2c-.4767118-1.1689401-.5540496-2.4625905-.22-3.68.0415107-.1940453.176277-.3550161.36-.43.86-.37 3 .41 4.12 1.31-1.7068272.3739332-3.212096 1.3726898-4.22 2.8zm.87 5c.4211451-.8090265.4721855-1.7605649.14-2.61.6936407-2.039618 2.6157171-3.405622 4.77-3.39h.32c2.5881406.1518114 4.6309186 2.2566969 4.7051694 4.8482225.0742508 2.5915257-1.8446594 4.8099189-4.4198622 5.1096673-2.5752027.2997483-4.9523408-1.4185937-5.4753072-3.9578898zm10.91 6c1.1045695 0 2 .8954305 2 2v7c0 .5522847-.4477153 1-1 1s-1-.4477153-1-1v-5c0-.5522847-.4477153-1-1-1s-1 .4477153-1 1v14.5c0 .8284271-.6715729 1.5-1.5 1.5s-1.5-.6715729-1.5-1.5v-8.5c0-.5522847-.4477153-1-1-1s-1 .4477153-1 1v8.5c-.0005333.6062833-.3659901 1.1526315-.926153 1.384574-.5601628.2319424-1.2048734.1038666-1.633847-.324574-.2832726-.2797678-.4418798-.6618671-.44-1.06v-14.5c0-.5522847-.4477153-1-1-1s-1 .4477153-1 1v5c0 .5522847-.4477153 1-1 1s-1-.4477153-1-1v-7c0-1.1045695.8954305-2 2-2zm-15.86 1c-.19.73-.14.66-.14 4.65l-8.62-3.72.33-.93zm31.59 26-16.11-7c.49-1 .38-1 .38-6.67l4.35-1.87 13.84 6 3.39 9.54z"/></g></g></svg>