<svg id="Capa_1" enable-background="new 0 0 512 512" height="512" viewBox="0 0 512 512" width="512" xmlns="http://www.w3.org/2000/svg"><g><g><path d="m386 15c0-8.284-6.716-15-15-15s-15 6.716-15 15v5h30z"/><path d="m271 15c0-8.284-6.716-15-15-15s-15 6.716-15 15v5h30z"/><path d="m156 15c0-8.284-6.716-15-15-15s-15 6.716-15 15v5h30z"/></g><path d="m456 20h-70v59.036c8.958 5.195 15 14.884 15 25.964 0 16.542-13.457 30-30 30s-30-13.458-30-30c0-11.08 6.042-20.769 15-25.964v-59.036h-85v59.036c8.958 5.195 15 14.884 15 25.964 0 16.542-13.457 30-30 30s-30-13.458-30-30c0-11.08 6.042-20.769 15-25.964v-59.036h-85v59.036c8.958 5.195 15 14.884 15 25.964 0 16.542-13.457 30-30 30s-30-13.458-30-30c0-11.08 6.042-20.769 15-25.964v-59.036h-70c-8.284 0-15 6.716-15 15v462c0 8.284 6.716 15 15 15h400c8.284 0 15-6.716 15-15v-462c0-8.284-6.716-15-15-15zm-80 352h-39.507l-43.631 72.717c-2.732 4.554-7.638 7.283-12.858 7.283-.619 0-1.242-.039-1.866-.117-5.895-.737-10.798-4.884-12.505-10.574l-38.242-127.473-30.528 50.88c-2.712 4.519-7.594 7.284-12.863 7.284h-48c-8.284 0-15-6.716-15-15s6.716-15 15-15h39.507l43.631-72.717c3.057-5.094 8.841-7.901 14.725-7.167 5.895.737 10.798 4.884 12.505 10.574l38.242 127.473 30.528-50.88c2.711-4.518 7.593-7.283 12.862-7.283h48c8.284 0 15 6.716 15 15s-6.716 15-15 15zm0-100h-25v25c0 8.284-6.716 15-15 15s-15-6.716-15-15v-25h-25c-8.284 0-15-6.716-15-15s6.716-15 15-15h25v-25c0-8.284 6.716-15 15-15s15 6.716 15 15v25h25c8.284 0 15 6.716 15 15s-6.716 15-15 15z"/></g></svg>