<?xml version="1.0" encoding="iso-8859-1"?>
<!-- Generator: Adobe Illustrator 18.1.1, SVG Export Plug-In . SVG Version: 6.00 Build 0)  -->
<svg version="1.1" id="Capa_1" xmlns="http://www.w3.org/2000/svg" xmlns:xlink="http://www.w3.org/1999/xlink" x="0px" y="0px"
	 viewBox="0 0 28.81 28.81" style="enable-background:new 0 0 28.81 28.81;" xml:space="preserve">
<g>
	<path style="fill:#030104;" d="M21.469,6.082c1.109,0,2-0.889,2-1.994v-2.09c0-1.107-0.891-1.998-2-1.998
		c-1.102,0-1.996,0.891-1.996,1.998v2.09C19.473,5.193,20.367,6.082,21.469,6.082z"/>
	<path style="fill:#030104;" d="M28.572,3.46h-4.027v1.012c0,1.681-1.363,3.045-3.041,3.045c-1.68,0-3.041-1.364-3.041-3.045V3.46
		h-8.115v1.012c0,1.681-1.361,3.045-3.041,3.045c-1.682,0-3.041-1.364-3.041-3.045V3.46L0.207,3.408v25.401l2.029,0.001h24.338
		l2.029-0.007L28.572,3.46z M26.574,26.789H2.236v-16.23h24.338C26.574,10.559,26.574,26.789,26.574,26.789z"/>
	<path style="fill:#030104;" d="M7.271,6.082c1.107,0,2-0.889,2-1.994v-2.09c0-1.107-0.893-1.998-2-1.998
		C6.17,0,5.275,0.891,5.275,1.998v2.09C5.275,5.193,6.17,6.082,7.271,6.082z"/>
	<path style="fill:#030104;" d="M7.713,21.518c0.418,0.228,1.367,0.612,2.322,0.612c1.211,0,1.822-0.581,1.822-1.319
		c0-0.994-0.986-1.441-2.008-1.441H8.898v-1.674h0.916c0.785,0,1.768-0.307,1.768-1.151c0-0.6-0.479-1.044-1.473-1.044
		c-0.812,0-1.67,0.354-2.072,0.601L7.56,14.415c0.604-0.384,1.781-0.752,3.088-0.752c2.119,0,3.293,1.118,3.293,2.482
		c0,1.061-0.594,1.905-1.824,2.317v0.033c1.197,0.214,2.166,1.121,2.166,2.438c0,1.749-1.551,3.038-4.082,3.038
		c-1.291,0-2.377-0.336-2.959-0.692L7.713,21.518z"/>
	<polygon style="fill:#030104;" points="18.797,15.903 18.768,15.903 16.865,16.807 16.482,15.057 19.135,13.832 21.053,13.832 
		21.053,23.804 18.797,23.804 	"/>
</g>
<g>
</g>
<g>
</g>
<g>
</g>
<g>
</g>
<g>
</g>
<g>
</g>
<g>
</g>
<g>
</g>
<g>
</g>
<g>
</g>
<g>
</g>
<g>
</g>
<g>
</g>
<g>
</g>
<g>
</g>
</svg>
